<svg width="230" height="49" viewBox="0 0 230 49" fill="none" xmlns="http://www.w3.org/2000/svg">
<path d="M199 0.5C199 6.61387 200.914 11.2279 203.803 14.6951C206.685 18.1534 210.515 20.4445 214.314 21.9642C216.664 22.904 219.011 23.5525 221.131 24H140.5L140.5 25H221.131C219.011 25.4475 216.664 26.096 214.314 27.0358C210.515 28.5555 206.685 30.8466 203.803 34.3049C200.914 37.7721 199 42.3861 199 48.5H200C200 42.6139 201.836 38.2279 204.572 34.9451C207.315 31.6534 210.985 29.4445 214.686 27.9642C218.385 26.4844 222.092 25.7422 224.879 25.3706C226.271 25.185 227.43 25.0923 228.239 25.0461C228.644 25.0229 228.961 25.0114 229.176 25.0057C229.284 25.0028 229.366 25.0014 229.42 25.0007L229.481 25.0001L229.496 25L229.499 25L229.5 24.5L229.5 24L229.498 24L229.496 24L229.481 23.9999L229.42 23.9993C229.366 23.9986 229.284 23.9972 229.176 23.9943C228.961 23.9886 228.644 23.9771 228.239 23.9539C227.43 23.9077 226.271 23.815 224.879 23.6294C222.092 23.2578 218.385 22.5156 214.686 21.0358C210.985 19.5555 207.315 17.3466 204.572 14.0549C201.836 10.7721 200 6.38613 200 0.5L199 0.5Z" fill="white"/>
<path d="M31 48.5C31 42.3861 29.0859 37.7721 26.1966 34.3049C23.3146 30.8466 19.485 28.5555 15.6857 27.0358C13.3362 26.096 10.9894 25.4475 8.86922 25L89.5 25L89.5 24L8.86921 24C10.9893 23.5525 13.3362 22.904 15.6857 21.9642C19.485 20.4445 23.3147 18.1534 26.1966 14.6951C29.086 11.2279 31 6.61387 31 0.500002L30 0.500002C30 6.38613 28.164 10.7721 25.4284 14.0549C22.6854 17.3466 19.015 19.5555 15.3143 21.0358C11.6147 22.5156 7.90806 23.2578 5.12142 23.6294C3.72941 23.815 2.5702 23.9077 1.76054 23.9539C1.35578 23.9771 1.03859 23.9886 0.823585 23.9943C0.716087 23.9972 0.634147 23.9986 0.579604 23.9993L0.518569 23.9999L0.50389 24L0.500732 24L0.499999 24.5L0.499953 25L0.502151 25L0.50389 25L0.518569 25.0001L0.579604 25.0007C0.634147 25.0014 0.716087 25.0028 0.823585 25.0057C1.03859 25.0114 1.35578 25.0229 1.76054 25.0461C2.5702 25.0923 3.7294 25.185 5.12141 25.3706C7.90805 25.7422 11.6147 26.4844 15.3143 27.9642C19.015 29.4445 22.6854 31.6534 25.4284 34.9451C28.164 38.2279 30 42.6139 30 48.5L31 48.5Z" fill="white"/>
</svg>
