<svg width="21" height="20" viewBox="0 0 21 20" fill="none" xmlns="http://www.w3.org/2000/svg">
<path d="M10.5156 19.9219C15.9648 19.9219 20.4766 15.4004 20.4766 9.96094C20.4766 4.51172 15.9551 0 10.5059 0C5.06641 0 0.554688 4.51172 0.554688 9.96094C0.554688 15.4004 5.07617 19.9219 10.5156 19.9219ZM10.5156 18.2617C5.90625 18.2617 2.22461 14.5703 2.22461 9.96094C2.22461 5.35156 5.89648 1.66016 10.5059 1.66016C15.1152 1.66016 18.8066 5.35156 18.8164 9.96094C18.8262 14.5703 15.125 18.2617 10.5156 18.2617ZM10.3105 11.9824C10.7988 11.9824 11.1016 11.6797 11.1016 11.2891V11.1719C11.1016 10.625 11.4141 10.2832 12.0977 9.83398C13.0449 9.20898 13.7188 8.63281 13.7188 7.4707C13.7188 5.83984 12.2734 4.9707 10.6133 4.9707C8.93359 4.9707 7.83008 5.76172 7.56641 6.66016C7.51758 6.82617 7.47852 6.98242 7.47852 7.14844C7.47852 7.57812 7.83008 7.82227 8.15234 7.82227C8.70898 7.82227 8.79688 7.51953 9.10938 7.1582C9.43164 6.62109 9.90039 6.29883 10.5547 6.29883C11.4434 6.29883 12.0195 6.79688 12.0195 7.54883C12.0195 8.21289 11.6094 8.53516 10.7598 9.12109C10.0566 9.60938 9.5293 10.127 9.5293 11.084V11.2109C9.5293 11.7285 9.8125 11.9824 10.3105 11.9824ZM10.291 14.9023C10.8574 14.9023 11.3457 14.4531 11.3457 13.8867C11.3457 13.3105 10.8672 12.8711 10.291 12.8711C9.71484 12.8711 9.23633 13.3203 9.23633 13.8867C9.23633 14.4434 9.72461 14.9023 10.291 14.9023Z" fill="white"/>
</svg>
