<svg width="20" height="20" viewBox="0 0 20 20" fill="none" xmlns="http://www.w3.org/2000/svg">
<path d="M9.96094 19.9219C15.4102 19.9219 19.9219 15.4004 19.9219 9.96094C19.9219 4.51172 15.4004 0 9.95117 0C4.51172 0 0 4.51172 0 9.96094C0 15.4004 4.52148 19.9219 9.96094 19.9219ZM9.96094 18.2617C5.35156 18.2617 1.66992 14.5703 1.66992 9.96094C1.66992 5.35156 5.3418 1.66016 9.95117 1.66016C14.5605 1.66016 18.252 5.35156 18.2617 9.96094C18.2715 14.5703 14.5703 18.2617 9.96094 18.2617ZM9.75586 11.9824C10.2441 11.9824 10.5469 11.6797 10.5469 11.2891V11.1719C10.5469 10.625 10.8594 10.2832 11.543 9.83398C12.4902 9.20898 13.1641 8.63281 13.1641 7.4707C13.1641 5.83984 11.7188 4.9707 10.0586 4.9707C8.37891 4.9707 7.27539 5.76172 7.01172 6.66016C6.96289 6.82617 6.92383 6.98242 6.92383 7.14844C6.92383 7.57812 7.27539 7.82227 7.59766 7.82227C8.1543 7.82227 8.24219 7.51953 8.55469 7.1582C8.87695 6.62109 9.3457 6.29883 10 6.29883C10.8887 6.29883 11.4648 6.79688 11.4648 7.54883C11.4648 8.21289 11.0547 8.53516 10.2051 9.12109C9.50195 9.60938 8.97461 10.127 8.97461 11.084V11.2109C8.97461 11.7285 9.25781 11.9824 9.75586 11.9824ZM9.73633 14.9023C10.3027 14.9023 10.791 14.4531 10.791 13.8867C10.791 13.3105 10.3125 12.8711 9.73633 12.8711C9.16016 12.8711 8.68164 13.3203 8.68164 13.8867C8.68164 14.4434 9.16992 14.9023 9.73633 14.9023Z" fill="white"/>
</svg>
